<svg width="20" height="20" viewBox="0 0 20 20" fill="none" xmlns="http://www.w3.org/2000/svg">
<path fill-rule="evenodd" clip-rule="evenodd" d="M10.6867 2.33405C9.43423 2.16839 8.16423 2.46363 7.11325 3.16479C6.06228 3.86595 5.302 4.92521 4.97401 6.14529C4.91739 6.35593 4.75505 6.52181 4.54568 6.58297C3.97494 6.74968 3.46361 7.07576 3.07171 7.52292C2.67982 7.97008 2.42363 8.51977 2.33322 9.10744C2.2428 9.69511 2.32193 10.2964 2.56129 10.8407C2.80066 11.3849 3.19033 11.8496 3.68457 12.1802C3.97149 12.3721 4.04852 12.7602 3.85662 13.0472C3.66472 13.3341 3.27656 13.4111 2.98964 13.2192C2.29771 12.7564 1.75217 12.1059 1.41706 11.3439C1.08195 10.5819 0.971175 9.74011 1.09775 8.91737C1.22433 8.09462 1.583 7.32507 2.13165 6.69904C2.60329 6.16088 3.1985 5.748 3.86389 5.49443C4.3124 4.11945 5.21096 2.93125 6.41953 2.12496C7.72273 1.25552 9.29754 0.889418 10.8506 1.09484C12.4037 1.30026 13.8292 2.0632 14.8615 3.24156C15.7829 4.29323 16.335 5.6118 16.4427 6.99687C16.9944 7.1647 17.4994 7.46559 17.9117 7.87635C18.4492 8.41192 18.8005 9.10595 18.9138 9.85622C19.0272 10.6065 18.8965 11.3733 18.5412 12.0437C18.1859 12.7142 17.6246 13.2528 16.9401 13.5802C16.6287 13.7291 16.2556 13.5974 16.1066 13.2861C15.9577 12.9747 16.0894 12.6015 16.4008 12.4526C16.8437 12.2407 17.2068 11.8922 17.4367 11.4584C17.6667 11.0246 17.7512 10.5284 17.6779 10.0429C17.6045 9.55745 17.3772 9.10837 17.0294 8.76183C16.6816 8.41529 16.2317 8.1896 15.746 8.11803C15.4392 8.07282 15.212 7.80954 15.2121 7.49946C15.2126 6.23606 14.7539 5.01556 13.9213 4.06527C13.0888 3.11499 11.9392 2.49971 10.6867 2.33405Z" fill="#D0DF00"/>
<path fill-rule="evenodd" clip-rule="evenodd" d="M6.22212 13.7221C6.4662 13.478 6.86193 13.478 7.106 13.7221L9.9974 16.6135L12.8888 13.7221C13.1329 13.478 13.5286 13.478 13.7727 13.7221C14.0167 13.9662 14.0167 14.3619 13.7727 14.606L10.4393 17.9393C10.1953 18.1834 9.79953 18.1834 9.55545 17.9393L6.22212 14.606C5.97804 14.3619 5.97804 13.9662 6.22212 13.7221Z" fill="#D0DF00"/>
<path fill-rule="evenodd" clip-rule="evenodd" d="M10 9.375C10.3452 9.375 10.625 9.65482 10.625 10V17.0833C10.625 17.4285 10.3452 17.7083 10 17.7083C9.65482 17.7083 9.375 17.4285 9.375 17.0833V10C9.375 9.65482 9.65482 9.375 10 9.375Z" fill="#D0DF00"/>
</svg>
